<svg xmlns="http://www.w3.org/2000/svg" xmlns:xlink="http://www.w3.org/1999/xlink" width="36px" height="36px" viewBox="0 0 36 36"><title>logo</title><desc>Created with Sketch.</desc><defs></defs><g id="Start" stroke="none" stroke-width="1" fill="none" fill-rule="evenodd"><g id="logo" fill="#FF732D"><path d="M18,36 C27.9411255,36 36,27.9411255 36,18 C36,8.0588745 27.9411255,0 18,0 C13.3254548,0 9.0670934,2.78189457 5.8671043,5.70349518 C2.26183386,8.99511899 0,12.7334197 0,18 C0,27.9411255 8.0588745,36 18,36 Z M4.0753788,18.9246212 C5.83273811,20.6819805 10.5814755,18.7824856 14.6819805,14.6819805 C18.7824856,10.5814755 20.6819805,5.83273811 18.9246212,4.0753788 C17.1672619,2.31801948 12.4185245,4.21751442 8.31801948,8.31801948 C4.21751442,12.4185245 2.31801948,17.1672619 4.0753788,18.9246212 Z"></path></g></g></svg>